<?xml version="1.0" encoding="utf-8"?>
<!-- Generator: Adobe Illustrator 23.0.3, SVG Export Plug-In . SVG Version: 6.00 Build 0)  -->
<svg version="1.1" id="Layer_1" xmlns="http://www.w3.org/2000/svg" xmlns:xlink="http://www.w3.org/1999/xlink" x="0px" y="0px"
	 viewBox="0 0 329.2 361.4" style="enable-background:new 0 0 329.2 361.4;" xml:space="preserve">
<style type="text/css">
	.st0{clip-path:url(#SVGID_2_);}
	.st1{fill:#DA9A75;}
	.st2{fill:none;stroke:#DA9A75;stroke-width:20;stroke-miterlimit:10;}
	.st3{fill:#B94948;}
	.st4{fill:#70C0D8;}
	.st5{fill:#332E2B;}
	.st6{fill:#7E5535;}
	.st7{fill:#EFE9D3;}
	.st8{fill:none;stroke:#332E2B;stroke-width:12;stroke-linecap:round;stroke-miterlimit:10;}
	.st9{fill:#F3AB4D;}
	.st10{fill:#F5BEC2;}
	.st11{fill:none;}
	.st12{opacity:0.2;}
	.st13{fill:#544D9B;}
</style>
<g>
	<defs>
		<rect id="SVGID_1_" width="329.2" height="361.4"/>
	</defs>
	<clipPath id="SVGID_2_">
		<use xlink:href="#SVGID_1_"  style="overflow:visible;"/>
	</clipPath>
	<g class="st0">
		<path class="st1" d="M37.8,257.7c-0.1,0.3-0.3,0.6-0.5,0.9c-2,3.5-5.5,5.8-9.4,6.1c-1.2,0.1-2.5,0.1-3.8-0.2l-8.1-1.8
			c-6.7-1.5-12.1-8.1-12.1-14.8v-0.2c0-1.3,0.2-2.5,0.6-3.6c2-5.7,8.5-8.2,15.1-5.1l3.7,1.8l-4.7-7.2c-0.5-0.9-0.8-1.8-0.8-2.6
			c0-1.7,1-3.1,2.8-3.4c1.6-0.2,3.4,0.7,4.4,2.2l11.4,15.6c0.4,0.5,0.7,1,1,1.5C39.3,250.3,39.4,254.3,37.8,257.7"/>
		<polygon class="st1" points="140.5,285.3 137.9,292.2 135.9,297.7 133.5,304 126.4,301.4 104.3,293.1 28,264.8 24.3,263.4 
			28,253.7 31.3,244.7 37.5,247 109.7,273.8 		"/>
		<path class="st1" d="M294.4,258.7c-2.4-4.2-2-9.3,0.8-13.2l11.4-15.6c1.1-1.5,2.8-2.4,4.4-2.2c2.7,0.3,3.7,3.4,2,6l-4.7,7.2
			l3.7-1.8c7.8-3.7,15.6,0.5,15.7,8.7c0.1,6.8-5.3,13.5-12.1,15l-8.1,1.8C302.4,265.7,297.1,263.3,294.4,258.7"/>
		<line class="st2" x1="304" y1="254.1" x2="195.3" y2="298.6"/>
		<path class="st3" d="M241.5,424c-33,0.8-117.5,6.3-148.2,6.2c11.9-13.8,20.9-24.7,23.1-36.9c1-5.6,0.6-11.4-1.7-17.9
			c-6.6-18.8-8.4-46.8,6.3-67.5c1.6-2.2,3.4-4.4,5.4-6.5c1.8-1.8,3.7-3.6,5.8-5.2c1.8-1.4,3.7-2.7,5.8-4c5.2-3.2,11.3-5.8,18.3-7.8
			c0,0,42.7-10.7,49.8,26.8c0.4,2,0.6,4.2,0.8,6.5C210.3,368.2,241.5,348,241.5,424"/>
		<path class="st1" d="M135,289.4l-0.8,81.6l61.8,1.3l3-81.6c-0.4-5.7-5-10.2-10.7-10.3l-42.1-0.9
			C140.4,279.4,135.6,283.7,135,289.4"/>
		<path class="st4" d="M206,311.3l-6.1,2.1l2.1,60.3l-54.9-1.2l-18.4-0.4l3.6-60.7l-11.4-3.6l-19.2-6l2.4-8.7l2.1-7.5l3.3-11.8
			l0.8-2.7l25.8,8.2c0.7,0,1.4-0.1,2.1,0l56.3,1.2c1.8,0,3.6,0.3,5.4,0.7l25.6-9l9.8,28.8L206,311.3z"/>
		<path class="st3" d="M200,281.3c-7.1,10.7-18.9,17.6-32.1,17.3c-13.4-0.3-25-7.9-31.6-19.2c0.7,0,1.4-0.1,2.1,0l56.3,1.2
			C196.4,280.6,198.2,280.8,200,281.3"/>
		<path class="st1" d="M167.6,289.3L167.6,289.3c-6.7-0.1-12.9-4.2-12.7-9.3l0.5-24.6c0.2-7.1,6.1-12.8,13.2-12.7
			c7.1,0.2,12.8,6.1,12.7,13.2l-0.5,24.6C180.6,285.5,173.9,289.4,167.6,289.3"/>
		<path class="st5" d="M135.3,149.7l0,0.2l-2.3,14.3l-7.7,48.9l-2.2,13.9l-0.1,0.4l-3.7,17.5l-2.8,13.2l-17.5-2.1l1.9-29.1
			l-20.4,30.4l-22.3-10.7l18.2-32.7l-33.4,11.8l-9.2-15.9l28.2-19l-34.3-3.9l-1-20.4l37-3.3l-27.8-16.6c0,0,2.6-10,3.7-14.9
			c30.1,2.2,43.2,20.7,43.2,20.7l11.3-10.3l15.9-14.5l3.3,2.9l1.1,0.9l10.8,9.5l1.7,1.5l3.6,3.2L135.3,149.7z"/>
		<path class="st5" d="M247.3,129.3c0,0,9.5-11.2,38.6-13.1c0.9,3.7,4.2,14.8,4.2,14.8l-27.5,17.8l37.1,2.2l-0.5,20.4l-30.5,5.6
			l34.1,23.5l-8.7,16.1l-33.7-8.5l18.2,34L261,253.6l-23.7-26.7l7.1,32.1l-16.5,2.6l-18.2-31.4L195.3,153l24.7-23L247.3,129.3z"/>
		<path class="st1" d="M242.3,187.4c-0.2,8.8-1.3,16.7-3.1,23.8c-3.9,15.1-11.2,26.6-20.2,34.9c-11.1,10.4-24.8,16-37.9,18.1
			c-4.5,0.7-8.9,1-13.2,0.9c-4.2-0.1-8.5-0.6-12.7-1.4c-2.5-0.5-5-1.2-7.5-2c-10.3-3.3-20.1-8.9-28.3-17
			c-9.5-9.3-16.9-21.7-20.4-37.4c-1.5-7-2.3-14.7-2.1-23.1c0.1-2.5,0.2-5,0.4-7.4c0-0.5,0.1-0.9,0.1-1.4c0.8-9.8,2.7-18.5,5.5-26
			c2.7-7.4,6.2-13.8,10.5-19.1c0.3-0.4,0.6-0.7,0.9-1.1c7.6-9.1,17.3-15.3,28.4-18.9c2.3-0.7,4.6-1.4,7-1.9h0
			c0.4-0.1,0.9-0.2,1.3-0.3c6.5-1.3,13.3-1.9,20.4-1.7c1.9,0,3.8,0.1,5.7,0.3c19.8,1.5,37.2,8.6,49.1,23c0.5,0.6,1,1.2,1.5,1.9
			c8.5,11.3,13.9,26.8,14.6,47.3c0,0.2,0,0.3,0,0.5C242.4,182.1,242.4,184.7,242.3,187.4"/>
		<path class="st6" d="M173.1,218.8c-1,7.4-11.9,7.3-12.5-0.4L173.1,218.8z"/>
		<path class="st5" d="M242.5,179.2c-24-26.6-56.4-52-93.3-70.9l76.2-4.1l26.9,45.6L242.5,179.2z"/>
		<path class="st5" d="M97.4,176.3c11.4-22.9,32.6-42.1,59.2-59.3l-42.3-19.9l-20.6,41L97.4,176.3z"/>
		<path class="st1" d="M67.4,193c-0.3,12.4,7.5,22.6,17.3,22.8c9.8,0.2,18-9.6,18.3-22c0.3-12.4-7.5-22.6-17.3-22.8
			C75.8,170.8,67.6,180.7,67.4,193"/>
		<path class="st6" d="M90.9,185.3c-4.9-0.5-10.9,1.6-11.5,7.8c-0.6,6.4,5,9.4,9.9,9.8L90.9,185.3z"/>
		<path class="st1" d="M270.9,197.5c-0.3,12.4-8.4,22.2-18.3,22c-9.8-0.2-17.6-10.4-17.3-22.8c0.3-12.4,8.4-22.2,18.3-22
			C263.4,174.9,271.1,185.1,270.9,197.5"/>
		<path class="st6" d="M247.7,188.7c4.9-0.2,10.8,2.1,11.2,8.3c0.3,6.4-5.4,9.1-10.3,9.4L247.7,188.7z"/>
		<path class="st7" d="M217.1,192.8c-0.3,15.6-8.5,28-24.3,27.7c-14.8-0.3-23.4-13.1-23.1-28.7c0.3-15.6,8.4-28,24.3-27.7
			C209.2,164.4,217.4,177.2,217.1,192.8"/>
		<path class="st7" d="M164.8,191.6c-0.3,15.6-8.5,28-24.3,27.7c-14.8-0.3-23.4-13.1-23.1-28.7c0.3-15.6,8.4-28,24.3-27.7
			C156.8,163.2,165.1,176.1,164.8,191.6"/>
		<path class="st8" d="M193.5,126.2c23.7,32.5,30.6,62.1,25.3,98"/>
		<path class="st5" d="M182.5,202L182.5,202c-3.8-0.1-6.8-3.2-6.8-7.1l0.2-7.5c0.1-3.8,3.2-6.8,7.1-6.8c3.8,0.1,6.8,3.2,6.8,7.1
			l-0.2,7.5C189.4,199.1,186.3,202.1,182.5,202"/>
		<path class="st5" d="M151.3,201.3L151.3,201.3c-3.8-0.1-6.8-3.2-6.8-7.1l0.2-7.5c0.1-3.8,3.2-6.8,7.1-6.8c3.8,0.1,6.8,3.2,6.8,7.1
			l-0.2,7.5C158.3,198.4,155.2,201.4,151.3,201.3"/>
		<polygon class="st9" points="247.3,128.9 244,129.4 240.6,129.9 227.6,131.7 216.4,133.3 200,135.6 194.7,136.4 157.2,141.7 
			130.6,145.5 123.2,146.5 118.6,147.2 115.9,147.6 115.9,147.6 102.8,149.4 95,150.5 82.9,152.3 68.6,51.5 67.3,42.6 75.7,49.6 
			109.3,77.8 119.2,86.1 144.6,36.7 149.1,27.9 156.3,35.4 198.2,78.4 224.3,32.2 228.4,24.9 229.7,32.5 		"/>
		<path class="st9" d="M214.3,21c1.1,7.5,8.1,12.6,15.6,11.5c7.5-1.1,12.6-8.1,11.5-15.6c-1.1-7.5-8.1-12.6-15.6-11.5
			C218.3,6.5,213.2,13.5,214.3,21"/>
		<path class="st9" d="M75.7,49.6c-1.5,0.9-3.1,1.5-4.9,1.7c-0.7,0.1-1.4,0.2-2.2,0.1c-6.6-0.1-12.4-4.9-13.4-11.7
			c-1.1-7.5,4-14.5,11.5-15.6c7.5-1.1,14.4,4,15.6,11.5C83.1,41.4,80.3,46.8,75.7,49.6"/>
		<path class="st9" d="M130.1,21.4c1.5,10.1,10.9,17.1,21,15.6c10.1-1.5,17.1-10.9,15.6-21c-1.5-10.1-10.9-17.1-21-15.6
			C135.6,1.9,128.6,11.3,130.1,21.4"/>
		<path class="st5" d="M193.7,227.9c3.4,0.1,5.9,3.2,5.2,6.6c-1.8,8.1-6.7,14.9-13.3,19.4c-5.1,3.4-11.3,5.4-17.9,5.3
			c-6.6-0.1-12.7-2.2-17.8-5.8c-6.5-4.6-11.2-11.6-12.7-19.7c-0.7-3.4,1.9-6.5,5.4-6.4L193.7,227.9z"/>
		<path class="st10" d="M185.6,253.8c-5.1,3.4-11.3,5.4-17.9,5.3c-6.6-0.1-12.7-2.2-17.8-5.8c2.5-7.6,9.7-13,18.1-12.9
			C176.3,240.5,183.3,246.2,185.6,253.8"/>
		<path class="st7" d="M160.5,227.4l0,3.2c0,2.3-2,4.2-4.3,4.2c-2.3,0-4.2-2-4.2-4.3l0-3.2L160.5,227.4z"/>
		<path class="st7" d="M168.8,227.5l0,3.2c0,2.3-2,4.2-4.3,4.2c-2.3,0-4.2-2-4.2-4.3l0-3.2L168.8,227.5z"/>
		<path class="st7" d="M177.1,227.7l0,3.2c0,2.3-1.9,4.2-4.3,4.2c-2.3,0-4.2-2-4.2-4.3l0-3.2L177.1,227.7z"/>
		<path class="st7" d="M185.5,227.8l0,3.2c0,2.3-2,4.2-4.3,4.2c-2.3,0-4.2-2-4.2-4.3l0-3.2L185.5,227.8z"/>
		
			<rect x="123.1" y="141.3" transform="matrix(0.9972 -7.523181e-02 7.523181e-02 0.9972 -10.5403 10.9654)" class="st5" width="34.3" height="8.2"/>
		
			<rect x="188.7" y="128.8" transform="matrix(8.187572e-02 -0.9966 0.9966 8.187572e-02 31.61 326.1402)" class="st5" width="8.2" height="34.3"/>
		<g>
			<path class="st11" d="M155.2,263.7c-2.5-0.5-5-1.2-7.5-2c-10.3-3.3-20.1-8.9-28.3-17l-2.8,13.2l-17.5-2.1l1.9-29.1l-20.4,30.4
				l-22.3-10.7l18.2-32.7l-33.4,11.8l-9.2-15.9l28.2-19l-34.3-3.9l-1-20.4l37-3.3l-27.8-16.6c0,0,2.6-10,3.7-14.9
				c30.1,2.2,43.2,20.6,43.2,20.6L68.6,51.5c-6.6-0.1-12.4-4.9-13.4-11.7c-1.1-7.5,4-14.5,11.5-15.6c7.5-1.1,14.4,4,15.6,11.5
				c0.8,5.7-1.9,11.1-6.6,13.8l33.6,28.2l2.4,24.7l2.6,26.7l0.2,2l1.6,16.3v0c0,0.1-0.4,1.3-0.9,3.4c-2.4,10.5-8,43.8,8,76
				C129.2,239.1,141.5,253.2,155.2,263.7"/>
		</g>
		<g class="st12">
			<path class="st13" d="M114.7,375.4c-3.3-9.4-5.4-21.1-4.8-33c0.6-11.9,3.8-24.1,11.1-34.5l-19.2-6l2.4-8.7L28,264.8
				c-1.2,0.1-2.5,0.1-3.8-0.2l-8.1-1.8c-6.7-1.5-12.1-8.1-12.1-14.8v-0.2c0-1.3,0.2-2.5,0.6-3.6l23.4,9.5l9.9,4l68.5,27.9l25.8,10.5
				l3.7,1.5l7.7,3.1l2,39.8l1.6,31.9l1.2,24.7"/>
		</g>
	</g>
</g>
</svg>
