<?xml version="1.0" encoding="utf-8"?>
<!-- Generator: Adobe Illustrator 23.0.3, SVG Export Plug-In . SVG Version: 6.00 Build 0)  -->
<svg version="1.1" id="Layer_1" xmlns="http://www.w3.org/2000/svg" xmlns:xlink="http://www.w3.org/1999/xlink" x="0px" y="0px"
	 viewBox="0 0 160.7 87.4" style="enable-background:new 0 0 160.7 87.4;" xml:space="preserve">
<style type="text/css">
	.st0{fill:#FFFFFF;}
</style>
<path class="st0" d="M96.2,51.8c1.2,17.9-12.4,33.4-30.4,34.6C47.9,87.5,32.4,73.9,31.2,56C30.1,38,43.7,22.5,61.6,21.4
	C79.6,20.2,95,33.8,96.2,51.8"/>
<path class="st0" d="M106.3,53.3c-7.1,16.5-26.2,24.2-42.7,17.2c-16.5-7.1-24.2-26.2-17.2-42.7c7.1-16.5,26.2-24.2,42.7-17.2
	C105.7,17.7,113.4,36.8,106.3,53.3"/>
<path class="st0" d="M131.4,55.3c-1.6,18.2-18.7,31.7-38.2,30.2C73.8,83.9,59.4,67.9,61,49.7C62.7,31.5,79.8,18,99.2,19.6
	C118.6,21.1,133.1,37.1,131.4,55.3"/>
<path class="st0" d="M56.6,63.5c-8.8,12.6-26.1,15.7-38.7,6.9C5.3,61.6,2.2,44.3,11,31.7c8.8-12.6,26.1-15.7,38.7-6.9
	C62.3,33.6,65.4,50.9,56.6,63.5"/>
<path class="st0" d="M156.6,49.9c-1.3,15.3-14.7,26.6-30,25.3c-15.3-1.3-26.6-14.7-25.3-30c1.3-15.3,14.7-26.6,30-25.3
	C146.5,21.2,157.9,34.7,156.6,49.9"/>
</svg>
