<?xml version="1.0" encoding="utf-8"?>
<!-- Generator: Adobe Illustrator 23.0.3, SVG Export Plug-In . SVG Version: 6.00 Build 0)  -->
<svg version="1.1" id="Layer_1" xmlns="http://www.w3.org/2000/svg" xmlns:xlink="http://www.w3.org/1999/xlink" x="0px" y="0px"
	 viewBox="0 0 56.2 30.6" style="enable-background:new 0 0 56.2 30.6;" xml:space="preserve">
<style type="text/css">
	.st0{fill:#FFFFFF;}
</style>
<path class="st0" d="M33.6,18.2c0.5,6.3-4.1,11.8-10.4,12.3c-6.3,0.5-11.8-4.1-12.3-10.4C10.4,13.9,15,8.4,21.3,7.9
	C27.6,7.3,33.1,11.9,33.6,18.2"/>
<path class="st0" d="M37.2,15.9c-2.5,5.8-9.2,8.5-14.9,6c-5.8-2.5-8.5-9.2-6-14.9c2.5-5.8,9.2-8.5,14.9-6
	C37,3.4,39.7,10.1,37.2,15.9"/>
<path class="st0" d="M46,17.1c-0.5,6.3-6,10.9-12.3,10.4c-6.3-0.5-10.9-6-10.4-12.3c0.5-6.3,6-10.9,12.3-10.4
	C41.9,5.3,46.5,10.8,46,17.1"/>
<path class="st0" d="M17.7,22.2c-3.1,4.4-9.1,5.5-13.5,2.4c-4.4-3.1-5.5-9.1-2.4-13.5c3.1-4.4,9.1-5.5,13.5-2.4
	C19.7,11.7,20.8,17.8,17.7,22.2"/>
<path class="st0" d="M56.2,17.5c-0.5,5.4-5.2,9.3-10.5,8.9c-5.4-0.5-9.3-5.2-8.9-10.5C37.3,10.5,42,6.5,47.3,7
	C52.7,7.4,56.6,12.1,56.2,17.5"/>
</svg>
