<?xml version="1.0" encoding="utf-8"?>
<!-- Generator: Adobe Illustrator 23.0.3, SVG Export Plug-In . SVG Version: 6.00 Build 0)  -->
<svg version="1.1" id="Layer_1" xmlns="http://www.w3.org/2000/svg" xmlns:xlink="http://www.w3.org/1999/xlink" x="0px" y="0px"
	 viewBox="0 0 69.7 41.3" style="enable-background:new 0 0 69.7 41.3;" xml:space="preserve">
<style type="text/css">
	.st0{fill:#FFFFFF;}
</style>
<path class="st0" d="M37.3,12.7c-0.3,6.8-5.9,12-12.7,11.8c-6.8-0.3-12-5.9-11.8-12.7C13,5,18.7-0.2,25.5,0
	C32.2,0.3,37.5,5.9,37.3,12.7"/>
<path class="st0" d="M24.5,26.3c-0.3,6.8-5.9,12-12.7,11.8C5,37.8-0.2,32.1,0,25.3c0.3-6.8,5.9-12,12.7-11.8
	C19.5,13.8,24.7,19.5,24.5,26.3"/>
<path class="st0" d="M41.7,29.5c-0.3,6.8-5.9,12-12.7,11.8c-6.8-0.3-12-5.9-11.8-12.7c0.3-6.8,5.9-12,12.7-11.8
	C36.7,17.1,42,22.8,41.7,29.5"/>
<path class="st0" d="M52.6,17.7c-0.2,5.8-5.1,10.3-10.8,10.1c-5.8-0.2-10.3-5.1-10.1-10.8C32,11.1,36.8,6.6,42.6,6.9
	C48.4,7.1,52.9,11.9,52.6,17.7"/>
<path class="st0" d="M69.7,26.2c-0.3,6.8-5.9,12-12.7,11.8c-6.8-0.3-12-5.9-11.8-12.7c0.3-6.8,5.9-12,12.7-11.8
	C64.7,13.7,69.9,19.4,69.7,26.2"/>
<path class="st0" d="M55.5,29.2c-0.2,5.8-5.1,10.3-10.8,10.1c-5.8-0.2-10.3-5.1-10.1-10.8c0.2-5.8,5.1-10.3,10.8-10.1
	C51.2,18.6,55.7,23.5,55.5,29.2"/>
</svg>
