<?xml version="1.0" encoding="utf-8"?>
<!-- Generator: Adobe Illustrator 23.0.3, SVG Export Plug-In . SVG Version: 6.00 Build 0)  -->
<svg version="1.1" id="Layer_1" xmlns="http://www.w3.org/2000/svg" xmlns:xlink="http://www.w3.org/1999/xlink" x="0px" y="0px"
	 viewBox="0 0 316.7 167.2" style="enable-background:new 0 0 316.7 167.2;" xml:space="preserve">
<style type="text/css">
	.st0{fill:#DA9A75;}
	.st1{fill:#B94948;}
	.st2{fill:#544D9B;}
	.st3{fill:#FFFFFF;}
	.st4{fill:#3A3D57;}
	.st5{fill:#70C0D8;}
	.st6{fill:#332E2B;}
	.st7{fill:#F3AB4D;}
	.st8{fill:#7E5535;}
	.st9{fill:#EFE9D3;}
	.st10{fill:none;}
	.st11{fill:#EC6734;}
	.st12{fill:#E83B37;}
	.st13{clip-path:url(#SVGID_2_);}
	.st14{fill:#F5BEC2;}
</style>
<path class="st0" d="M301.6,148.2L301.6,148.2c1.3,0.3,2.6-0.6,2.9-1.9l2.2-10.6c0.3-1.3-0.6-2.6-1.9-2.9c-1.3-0.3-2.6,0.6-2.9,1.9
	l-2.2,10.6C299.4,146.6,300.3,147.9,301.6,148.2"/>
<path class="st0" d="M285.6,159.3L285.6,159.3c1.3,0.4,2.7-0.3,3.1-1.6l3.2-10.3c0.4-1.3-0.3-2.7-1.6-3.1c-1.3-0.4-2.7,0.3-3.1,1.6
	l-3.2,10.3C283.5,157.6,284.3,158.9,285.6,159.3"/>
<path class="st1" d="M298.4,111.6c-19-7.3-24.5,5.2-34,4.7c-9.5-0.5-11.5-8.3-23.9-3.6c3,6.6,15.2,34.3,15.2,34.3
	s4.2-10.9,21.2-13.1C291.5,132,298.4,111.6,298.4,111.6"/>
<path class="st0" d="M293.4,113.7L293.4,113.7c1.7,0,3.2-1.1,3.1-2.3l-0.2-6.1c-0.1-1.8-1.5-3.1-3.3-3.1c-1.8,0.1-3.1,1.5-3.1,3.3
	l0.2,6.1C290.1,112.8,291.8,113.8,293.4,113.7"/>
<path class="st2" d="M289.4,132.4c-0.4,1.7,0.6,3.4,2.2,3.9c1.7,0.4,3.4-0.6,3.9-2.2c0.4-1.7-0.6-3.4-2.2-3.9
	C291.6,129.7,289.8,130.7,289.4,132.4"/>
<path class="st2" d="M287.2,142.8c-0.4,1.7,0.6,3.4,2.2,3.9c1.7,0.4,3.4-0.6,3.9-2.2c0.4-1.7-0.6-3.4-2.2-3.9
	C289.4,140.1,287.6,141.1,287.2,142.8"/>
<polygon class="st2" points="295.5,134 293.3,144.4 287.1,143.2 289.4,132.4 "/>
<polygon class="st2" points="285.1,149.9 287.2,142.8 293.3,144.4 291.6,151.6 "/>
<path class="st3" d="M291.7,166.2l-0.7,1l-11.2-8l0.9-1.2l2.3-3.1l0.9-1.2l3.6,2.7l0.9-2.1l4,3.1l-2.9,2.1l-0.3,0.3l1.3,0.9
	c0.1,0.1,0.2,0.1,0.2,0.2c0.8,0.6,1.3,1.6,1.5,2.6c0.2,0.9,0.1,1.7-0.4,2.5C291.8,166,291.7,166.1,291.7,166.2"/>
<path class="st4" d="M279.7,159.2l11.2,8l0.7-1c0-0.1,0.1-0.1,0.1-0.2l-11.2-8L279.7,159.2z"/>
<path class="st2" d="M293.9,136.3c1.7,0.1,3.3-1.2,3.4-2.9c0.1-1.7-1.2-3.3-2.9-3.4c-1.7-0.1-3.3,1.2-3.4,2.9
	C290.9,134.6,292.2,136.1,293.9,136.3"/>
<path class="st2" d="M304.5,136.6c1.7,0.1,3.3-1.2,3.4-2.9c0.1-1.7-1.2-3.3-2.9-3.4c-1.7-0.1-3.3,1.2-3.4,2.9
	C301.5,134.9,302.8,136.4,304.5,136.6"/>
<polygon class="st2" points="294.4,130 305,130.3 305,136.6 293.9,136.3 "/>
<polygon class="st2" points="300.3,139.2 301.6,133 307.8,134 306.9,140.2 "/>
<path class="st3" d="M312.5,149l0.1,1.2l-13.7,1.3l-0.1-1.5l-0.3-3.8l-0.1-1.5l4.5-0.3l-0.7-2.2l5.1-0.3l-0.8,3.5l0,0.4l1.6-0.2
	c0.1,0,0.2,0,0.3,0c1,0,2.1,0.3,2.9,1c0.7,0.5,1.2,1.3,1.3,2.1C312.5,148.9,312.5,149,312.5,149"/>
<path class="st4" d="M298.9,151.6l13.7-1.3l-0.1-1.2c0-0.1,0-0.2,0-0.3l-13.7,1.3L298.9,151.6z"/>
<path class="st0" d="M307.6,121.3c0.7-1.5,0-3.3-1.5-4c-1.5-0.7-3.3,0-4,1.5c-0.7,1.5,0,3.3,1.5,4
	C305.2,123.4,306.9,122.8,307.6,121.3"/>
<path class="st0" d="M304.7,117l-9.2-6.6c-1.5-1-3.5-0.6-4.4,0.9c-0.8,1.4-0.4,3.2,1,4.1l11.3,7.1L304.7,117z"/>
<polygon class="st0" points="302.9,117.8 309.1,109.1 313.7,112.5 307.2,122 "/>
<path class="st0" d="M276.9,126.7l-4.8-3.1l-2,2.5c-1.3,1.7-1.1,3.6,0.4,4.6c2.6,1.7,4.3-1,4.3-1s1,0.6,1.7-0.1
	C277.5,128.6,276.9,126.7,276.9,126.7"/>
<path class="st5" d="M287.7,134.7l13.4-4.8l-2.9-17c-0.7-2.1-2.8-3.4-4.9-3.1c-2.1,0.3-3.8,2.1-3.9,4.2L287.7,134.7z"/>
<path class="st0" d="M277.1,114.5c-0.5,1.6,0.3,3.3,1.9,3.8c1.6,0.5,3.3-0.3,3.8-1.9c0.5-1.6-0.3-3.3-1.9-3.8
	C279.3,112.1,277.6,113,277.1,114.5"/>
<path class="st0" d="M282.1,117.5l11.3-1.5c1.8-0.2,3-1.9,2.6-3.7c-0.4-1.6-1.9-2.6-3.5-2.3l-13.1,2.5L282.1,117.5z"/>
<polygon class="st0" points="282.1,117.5 276.9,126.7 272.1,123.7 277.5,113.8 "/>
<polygon class="st5" points="296.6,111.8 294.2,109.7 286.3,110.4 286.4,117.6 295.4,116.6 "/>
<polygon class="st5" points="296.4,110.5 302.1,114.4 299.9,120.7 293.6,116.8 "/>
<path class="st0" d="M309,109.3l4.7,3.3l2.1-2.4c1.4-1.6,1.3-3.5-0.2-4.6c-2.5-1.8-4.3,0.8-4.3,0.8s-1-0.7-1.7,0.1
	C308.5,107.4,309,109.3,309,109.3"/>
<path class="st1" d="M298.4,111.6l-14.9-1.1l6.1-0.6l6.2-0.6C297.2,109.2,298.4,110.2,298.4,111.6"/>
<path class="st6" d="M300.6,67c0,0,3.3-5.8,10.2-7.9c0.6,0.7,1.8,3.3,1.8,3.3l-6.6,6.3l9.5,0l0.5,4.9l-10.3,1.4l7.4,2.1l-1.4,4
	l-10.8,0l0.5,6.9l-3.5,3.7l5.9-0.8l-9.6,3l-3.8,1.5l7-2.3l-7.7-17.7l4.6-6.9L300.6,67z"/>
<path class="st1" d="M303.2,97.1c1,1.1,2.5,1.7,3.9,1.6c0.3-0.4,0.5-0.9,0.8-1.3c-1.4,0.4-2.9-0.1-3.8-1.1c-0.2-0.2-0.6-0.3-0.8-0.1
	C303,96.5,303,96.8,303.2,97.1"/>
<path class="st0" d="M275.4,96.3c6.3,11.5,17.6,12.6,25,8.6c2.5-1.4,4.9-3.4,6.7-6.2c0.3-0.4,0.5-0.9,0.8-1.3
	c2.4-4.7,2.9-10.9-1.1-18.2c-6.8-12.5-16.4-13.3-25-8.6C273.1,75.3,268.7,84,275.4,96.3"/>
<path class="st6" d="M298.8,69.2l-11,20.2l0.1,5.6l-0.4,14.8l-4.3,0.3l-1.8-6.6l-4.5,7.2l-4.7-1.5l2.5-7.9l-6.7,6.9l-3-3l2.7-6.9
	l-7.5,6.6l-3-3.6l6.7-6.2l-10-2l-0.4-4.3c0,0,7.7-2.1,13.7,1.7c2.5-5.1,28.4-24.9,28.4-24.9L298.8,69.2z"/>
<polygon class="st7" points="300.6,67 267.2,90.5 251.5,68.3 267.8,72 267.8,55.9 284.2,61.4 284.8,46.3 "/>
<path class="st7" d="M281.3,47.1c1.1,1.5,3.2,1.9,4.7,0.8c1.5-1.1,1.9-3.2,0.8-4.7c-1.1-1.5-3.2-1.9-4.7-0.8
	C280.5,43.4,280.2,45.5,281.3,47.1"/>
<path class="st7" d="M248.6,69c1.1,1.5,3.2,1.9,4.7,0.8c1.5-1.1,1.9-3.2,0.8-4.7c-1.1-1.5-3.2-1.9-4.7-0.8
	C247.8,65.4,247.5,67.5,248.6,69"/>
<path class="st7" d="M262.9,56.6c1.5,2,4.3,2.5,6.3,1c2-1.5,2.5-4.3,1-6.3c-1.5-2-4.3-2.5-6.3-1C261.9,51.7,261.4,54.5,262.9,56.6"
	/>
<path class="st0" d="M281.1,91.5c0.6,3,3,5,5.4,4.5c2.4-0.5,3.8-3.3,3.2-6.3c-0.6-3-3-5-5.4-4.5C281.9,85.7,280.5,88.5,281.1,91.5"
	/>
<path class="st8" d="M286.4,88.4c-1.2,0.2-2.5,1-2.3,2.5c0.2,1.6,1.7,2,2.9,1.8L286.4,88.4z"/>
<rect x="294.1" y="75.9" transform="matrix(0.9485 -0.3169 0.3169 0.9485 -8.9867 98.4828)" class="st6" width="8.4" height="2"/>
<path class="st0" d="M310.9,92.3l-3.3,0.7l1.2-3.2l1.5-0.3c0.8-0.2,1.6,0.3,1.7,1.1S311.7,92.1,310.9,92.3"/>
<path class="st9" d="M307,84.8c0.9,3.8-0.2,7.4-4.1,8.3c-3.6,0.9-6.5-1.7-7.5-5.5c-0.9-3.8,0.2-7.4,4-8.3
	C303.3,78.3,306.1,80.9,307,84.8"/>
<path class="st6" d="M306.8,86.2c0.1,1.4-0.6,2.7-1.7,2.8c-1.1,0.1-2.1-1-2.2-2.4c-0.1-1.4,0.6-2.7,1.7-2.8
	C305.7,83.7,306.7,84.7,306.8,86.2"/>
<path class="st10" d="M281.8,70.6c-8.7,4.7-13.1,13.4-6.4,25.7c6.3,11.5,17.6,12.6,25,8.6c2.5-1.4,4.9-3.4,6.7-6.2
	c0.3-0.4,0.5-0.9,0.8-1.3c2.4-4.7,2.9-10.9-1.1-18.2c-4.4-8-9.9-11.2-15.6-11.2C288.1,67.9,284.9,68.9,281.8,70.6"/>
<path class="st3" d="M156.5,46.4c0.5,7.2,5.3,12.7,10.8,12.3c5.5-0.4,9.6-6.4,9.2-13.6c-0.5-7.1-5.3-12.7-10.8-12.3
	C160.2,33.1,156.1,39.2,156.5,46.4"/>
<path class="st6" d="M169.7,52.4L169.7,52.4c1.5-0.1,2.6-1.4,2.5-2.8l-0.3-5.2c-0.1-1.5-1.4-2.6-2.8-2.5c-1.5,0.1-2.6,1.4-2.5,2.8
	l0.3,5.2C167,51.4,168.2,52.5,169.7,52.4"/>
<path class="st7" d="M63.9,115.2c-1.2,0-2.3-0.2-3.4-0.5c-4.4-1.2-7.7-4.9-10.8-8.4c-2.8-3.2-5.7-6.4-9.5-8.1
	c-4.3-1.9-9.3-1.6-15.4,1l-1.2-2.8c6.9-2.9,12.7-3.2,17.8-0.9c4.4,2,7.5,5.5,10.6,8.9c3,3.3,5.8,6.5,9.4,7.5c4,1.1,8.8-0.5,15.1-5.1
	l1.8,2.4C72.7,113.2,68.1,115.2,63.9,115.2"/>
<path class="st11" d="M8.7,94.7l6.3-4.2c3.5-2.3,8.2-1.4,10.6,2.1c2.3,3.5,1.4,8.2-2.1,10.6c-3.5,2.3-8.2,1.4-10.6-2.1L8.7,94.7z"/>
<path class="st7" d="M116.3,147.4l5.1,8.1l-13.1,8.3l-5.1-8.1c-2.3-3.6-1.2-8.4,2.4-10.7c1.8-1.1,3.9-1.4,5.9-1
	C113.4,144.4,115.2,145.6,116.3,147.4"/>
<path class="st7" d="M128.2,151.3L109.7,163l-5.8-9.2L121,143c2.9-1.8,6.8-1,8.6,1.9C131,147.1,130.3,149.9,128.2,151.3"/>
<path class="st7" d="M102.9,155.2L84,125.4c-2.3-3.6-1.2-8.4,2.4-10.7c3.6-2.3,8.4-1.2,10.7,2.4l18.9,29.8c2.3,3.6,1.2,8.4-2.4,10.7
	C110,159.9,105.2,158.8,102.9,155.2"/>
<path class="st7" d="M192,129.4l8.7,4l-6.5,14.1l-8.7-4c-3.9-1.8-5.6-6.4-3.8-10.3c0.9-1.9,2.5-3.3,4.4-4
	C188,128.5,190.1,128.5,192,129.4"/>
<path class="st7" d="M204.1,126.2l-9.2,19.9l-9.8-4.6l8.5-18.4c1.4-3.1,5.1-4.5,8.3-3C204.2,121.2,205.2,123.9,204.1,126.2"/>
<path class="st7" d="M185,143.3l-32-14.9c-3.9-1.8-5.6-6.4-3.8-10.3c1.8-3.9,6.4-5.6,10.3-3.8l32,14.9c3.9,1.8,5.6,6.4,3.8,10.3
	C193.5,143.4,188.9,145.1,185,143.3"/>
<path class="st7" d="M171.9,113.1c-0.3,2.4-0.9,4.7-1.8,6.8c-1.2,2.8-2.8,5.3-4.9,7.5c-4.2,4.5-10.1,7.5-16.7,8L99.4,139
	c-4.1,0.3-8.1-0.4-11.7-1.9c-1.2-0.5-2.3-1-3.3-1.7c-0.1-0.1-0.3-0.2-0.4-0.2c-1.4-0.8-2.6-1.8-3.8-2.9c-4.6-4.2-7.6-10.1-8.1-16.8
	c-1-14,9.5-26.3,23.5-27.3l49.1-3.6c7.3-0.5,14.2,2.1,19.2,6.7c4.6,4.2,7.6,10.1,8.1,16.8C172.2,109.8,172.1,111.5,171.9,113.1"/>
<path class="st11" d="M170.1,119.9c-1.2,2.8-2.8,5.3-4.9,7.5c-4.2,4.5-10.1,7.5-16.7,8L99.5,139c-4.1,0.3-8.1-0.4-11.7-1.9
	c-1.2-0.5-2.3-1-3.3-1.7c3.5-7.6,10.7-13.4,19.7-14.4l48-5.9C158.8,114.3,165.1,116.2,170.1,119.9"/>
<path class="st7" d="M82.6,155l-3.5,8.9l-14.5-5.7l3.5-8.9c1.6-4,6.1-6,10.1-4.4c2,0.8,3.5,2.3,4.3,4.1
	C83.3,150.9,83.4,153,82.6,155"/>
<path class="st7" d="M86.5,166.9l-20.4-8l4-10.1l18.9,7.4c3.2,1.3,4.8,4.9,3.5,8.1C91.5,166.6,88.9,167.8,86.5,166.9"/>
<path class="st7" d="M68.3,148.8l12.9-32.9c1.6-4,6.1-6,10.1-4.4c4,1.6,6,6.1,4.4,10.1l-12.9,32.9c-1.6,4-6.1,6-10.1,4.4
	C68.7,157.3,66.8,152.8,68.3,148.8"/>
<path class="st7" d="M155.6,157v9.6h-15.5V157c0-4.3,3.5-7.8,7.8-7.8c2.1,0,4.1,0.9,5.5,2.3C154.8,152.9,155.6,154.8,155.6,157"/>
<path class="st7" d="M163.6,166.6h-21.9v-10.8H162c3.4,0,6.2,2.8,6.2,6.2C168.2,164.5,166.2,166.6,163.6,166.6"/>
<path class="st7" d="M140.1,156.4v-35.3c0-4.3,3.5-7.8,7.8-7.8c4.3,0,7.8,3.5,7.8,7.8v35.3c0,4.3-3.5,7.8-7.8,7.8
	C143.6,164.2,140.1,160.7,140.1,156.4"/>
<path class="st12" d="M101.9,73c4.7,33.7,32.7,57.9,68.3,49.1c25.3-6.2,40.6-23-5.1-80.7c31.5-15.6,8.7-48.6-26.6-39.9
	C109.8,8.5,96.2,32.2,101.9,73"/>
<path class="st7" d="M160.2,81.3c8,1.4,15.6,1.7,22.9,1.1c7.2-0.5,13.7-3.5,18.7-8.1c3.9-2.8,6.8-7.7,8.7-14.7
	c0.2-0.9,0.5-1.9,0.7-2.9c0.4-2,0.7-4.1,1-6.4l-0.1-7.2l-0.1-7.8c-0.1-3.2-2.5-5.9-5.6-6.2c-14-1.7-29.5-1.7-45.9-0.4
	c-5.9,0.5-11.2,2.8-15.3,6.4c-5.7,5-9.2,12.3-9.1,20.4c0.1,3.7,0.9,7.1,2.4,10.2C142.2,73.9,150.5,79.6,160.2,81.3"/>
<path class="st11" d="M145,35.1l65.9,7.9l1.2,0.1l-0.2-7.8c-0.1-3.2-2.5-5.9-5.6-6.2c-3.2-0.4-6.4-0.7-9.7-0.9
	c-11.3-0.7-23.5-0.5-36.2,0.5C154.5,29.1,149.2,31.5,145,35.1"/>
<path class="st6" d="M196.6,28.2c4,4,10,10.2,14.3,14.8l1.2,0.1l-0.2-7.8c-0.1-3.2-2.5-5.9-5.6-6.2
	C203.1,28.7,199.9,28.4,196.6,28.2"/>
<path class="st7" d="M128.7,51.1c4.7,1.1,9.4-1.8,10.5-6.5c1.1-4.7-1.8-9.4-6.5-10.5c-4.7-1.1-9.4,1.8-10.5,6.5
	C121.1,45.3,124.1,50,128.7,51.1"/>
<path class="st11" d="M130.9,48.1c0.1,0,0.1,0,0.2,0l3.4-9.7c-0.4-0.2-0.8-0.4-1.2-0.5c-2.8-0.7-5.6,1.1-6.2,3.9
	C126.4,44.7,128.1,47.5,130.9,48.1"/>
<path class="st6" d="M196.9,53.7c2.2,3.2,5.3,5.3,9,5.9c1.5,0.2,3,0.2,4.6,0c0.2-0.9,0.5-1.9,0.7-2.9c-1.6,0.4-3.3,0.4-4.8,0.2
	c-2.9-0.5-5.4-2.1-7.2-4.7L196.9,53.7z"/>
<path class="st6" d="M157.9,56.8c-4.3,0-8.3-2.9-10-6.5l2-1c2.2,4.8,7.5,6.2,11.1,4.5c2.2-1,3.6-2.7,4.3-4.9
	c0.6-2.1,0.4-4.4-0.6-6.5l2-0.9c1.2,2.6,1.5,5.5,0.7,8.1c-0.8,2.8-2.8,5-5.5,6.3C160.6,56.6,159.2,56.8,157.9,56.8"/>
<rect x="134.4" y="23.6" transform="matrix(0.7769 -0.6296 0.6296 0.7769 15.5169 95.1483)" class="st11" width="15.3" height="4.2"/>
<g>
	<defs>
		<path id="SVGID_1_" d="M275.4,96.3c6.3,11.5,17.6,12.6,25,8.6c2.5-1.4,4.9-3.4,6.7-6.2c0.3-0.4,0.5-0.9,0.8-1.3
			c2.4-4.7,2.9-10.9-1.1-18.2c-6.8-12.5-16.4-13.3-25-8.6C273.1,75.3,268.7,84,275.4,96.3"/>
	</defs>
	<clipPath id="SVGID_2_">
		<use xlink:href="#SVGID_1_"  style="overflow:visible;"/>
	</clipPath>
	<g class="st13">
		<path class="st6" d="M313.4,94.9c0.9,0,1.6,0.8,1.5,1.8c-0.4,2.2-1.7,4.1-3.5,5.4c-1.4,1-3.1,1.5-4.9,1.6c-1.8,0-3.5-0.5-4.9-1.5
			c-1.8-1.2-3.1-3.1-3.6-5.3c-0.2-0.9,0.5-1.8,1.4-1.8L313.4,94.9z"/>
		<path class="st9" d="M304.3,95l0,0.9c0,0.6-0.5,1.2-1.1,1.2c-0.6,0-1.2-0.5-1.2-1.1l0-0.9L304.3,95z"/>
		<path class="st9" d="M306.6,95l0,0.9c0,0.6-0.5,1.2-1.1,1.2c-0.6,0-1.2-0.5-1.2-1.1l0-0.9L306.6,95z"/>
		<path class="st9" d="M308.9,95l0,0.9c0,0.6-0.5,1.2-1.1,1.2c-0.6,0-1.2-0.5-1.2-1.1l0-0.9L308.9,95z"/>
		<path class="st9" d="M311.2,94.9l0,0.9c0,0.6-0.5,1.2-1.1,1.2c-0.6,0-1.2-0.5-1.2-1.1l0-0.9L311.2,94.9z"/>
		<path class="st14" d="M309,103.6c-1.6,0.6-3.3,0.8-5.1,0.4c-1.8-0.4-3.3-1.3-4.5-2.5c1.1-1.9,3.3-3,5.6-2.5
			C307.3,99.5,308.9,101.4,309,103.6"/>
		<path class="st10" d="M299.4,95c-0.9,0-1.6,0.9-1.4,1.8c0.5,2.2,1.8,4.1,3.6,5.3c0.5,0.3,1.1,0.6,1.6,0.9c1.5-1.2,2.8-2.6,3.9-4.3
			c0.3-0.4,0.5-0.9,0.8-1.3c0.4-0.8,0.7-1.6,1-2.4L299.4,95z"/>
	</g>
</g>
</svg>
