<?xml version="1.0" encoding="utf-8"?>
<!-- Generator: Adobe Illustrator 23.0.3, SVG Export Plug-In . SVG Version: 6.00 Build 0)  -->
<svg version="1.1" id="Layer_1" xmlns="http://www.w3.org/2000/svg" xmlns:xlink="http://www.w3.org/1999/xlink" x="0px" y="0px"
	 viewBox="0 0 61.9 64.3" style="enable-background:new 0 0 61.9 64.3;" xml:space="preserve">
<style type="text/css">
	.st0{clip-path:url(#SVGID_2_);}
	.st1{fill:#332E2B;}
	.st2{fill:#EC6734;}
	.st3{fill:#EFE9D3;}
</style>
<g>
	<defs>
		<rect id="SVGID_1_" y="2" width="61.9" height="61.9"/>
	</defs>
	<clipPath id="SVGID_2_">
		<use xlink:href="#SVGID_1_"  style="overflow:visible;"/>
	</clipPath>
	<g class="st0">
		<path class="st1" d="M24.3,26.3c-1.7-1.7-4.6-1.7-6.3,0L6,38.4c-1.7,1.7-1.7,4.6,0,6.3c1.7,1.7,4.6,1.7,6.3,0l12-12.1
			C26,30.9,26,28.1,24.3,26.3"/>
		<path class="st1" d="M56,38.3L44,26.3c-1.7-1.7-4.6-1.7-6.3,0c-1.7,1.7-1.7,4.6,0,6.3l12.1,12c1.7,1.7,4.6,1.7,6.3,0
			C57.8,42.8,57.8,40,56,38.3"/>
		<path class="st2" d="M25.7,52.8c-2.2-0.4-4.3,1.1-4.7,3.3l-1,5.3c-0.4,2.2,1.1,4.3,3.3,4.7c2.2,0.4,4.3-1.1,4.7-3.3l1-5.3
			C29.4,55.4,27.9,53.2,25.7,52.8"/>
		<path class="st2" d="M42.4,61.3L41.2,56c-0.5-2.2-2.7-3.5-4.9-3c-2.2,0.5-3.5,2.7-3,4.9l1.3,5.3c0.5,2.2,2.7,3.5,4.9,3
			C41.6,65.6,42.9,63.4,42.4,61.3"/>
		<path class="st1" d="M49.7,42.3c2.4,15.8-8.8,19.3-18.7,19.3c-9.8,0-20.9-3.4-18.7-19.2c1.3-9.4,7.6-13,5.8-19
			C14.1,9.2,21.9,4.7,31,4.7c9.1,0,16.2,5,12.8,18.6C42.2,29.8,48.3,32.9,49.7,42.3"/>
		<path class="st3" d="M40.4,21.1c0.2-1.1,0.5-3.5,0.5-4.7c-0.2-5-4.5-9.7-9.8-5.7c-4.9-3.8-9.8,0.5-9.8,6.1c0,1.1,0.3,3.4,0.5,4.4
			c0.5,2.7,0.7,5.4-0.5,7.8c-2.7,5.4-4.3,11.1-4.3,16.7c0,10.9,6.4,15.2,14.3,15.2c7.9,0,14.2-4.3,14.2-15.2
			c0-5.6-1.7-11.3-4.4-16.6C39.7,26.6,39.9,23.8,40.4,21.1"/>
		<path class="st1" d="M29.6,14.9c0-1.1-0.9-2-2-2c-1.1,0-2,0.9-2,2l0,1.6c0,1.1,0.9,2,2,2c1.1,0,2-0.9,2-2L29.6,14.9z"/>
		<path class="st1" d="M36.5,14.9c0-1.1-0.9-2-2-2c-1.1,0-2,0.9-2,2l0,1.6c0,1.1,0.9,2,2,2c1.1,0,2-0.9,2-2L36.5,14.9z"/>
		<path class="st2" d="M32.9,19.7l-3.8,0c-1.7,0-2.5,2-1.3,3.2L31,26l3.2-3.2C35.4,21.6,34.6,19.6,32.9,19.7"/>
	</g>
</g>
</svg>
