<?xml version="1.0" encoding="utf-8"?>
<!-- Generator: Adobe Illustrator 23.0.3, SVG Export Plug-In . SVG Version: 6.00 Build 0)  -->
<svg version="1.1" id="Layer_1" xmlns="http://www.w3.org/2000/svg" xmlns:xlink="http://www.w3.org/1999/xlink" x="0px" y="0px"
	 viewBox="0 0 222.9 177.9" style="enable-background:new 0 0 222.9 177.9;" xml:space="preserve">
<style type="text/css">
	.st0{fill:#F3AB4D;}
	.st1{fill:#EC6734;}
	.st2{fill:#E83B37;}
	.st3{fill:#332E2B;}
	.st4{fill:#EFE9D3;}
	.st5{fill:#EA5481;}
</style>
<path class="st0" d="M62.5,136.9l-31.1,2.7l0.3-38.2c0-6.3,4.9-11.5,11.1-12c6.2-0.5,11.9,3.8,13,9.9L62.5,136.9z"/>
<path class="st1" d="M53.7,115.4c0,0.2,0,0.4,0,0.6l0.7,21.7l-15.3,1.3L36,117.6c-0.9-5.8,2.8-11.1,7.9-11.5
	C48.9,105.6,53.2,109.8,53.7,115.4"/>
<path class="st0" d="M20.2,94c-0.6,0.1-1.2-0.1-1.8-0.3l-15.9-8c-1.7-0.8-2.3-2.8-1.5-4.5c0.8-1.7,2.8-2.3,4.5-1.5l15.9,8
	c1.7,0.8,2.3,2.8,1.5,4.5C22.4,93.2,21.3,93.9,20.2,94"/>
<path class="st0" d="M35.9,102.1c-0.6,0.1-1.2-0.1-1.8-0.4l-15.8-8.2c-1.6-0.9-2.3-2.9-1.4-4.5s2.9-2.3,4.5-1.4l15.8,8.2
	c1.6,0.9,2.3,2.9,1.4,4.5C38,101.4,37,102,35.9,102.1"/>
<path class="st0" d="M65.4,90.1c-1.1,0.1-2.3-0.4-3-1.3c-1.1-1.5-0.8-3.6,0.7-4.7l14.3-10.6c1.5-1.1,3.6-0.8,4.7,0.7
	c1.1,1.5,0.8,3.6-0.7,4.7L67.1,89.5C66.6,89.9,66,90.1,65.4,90.1"/>
<path class="st0" d="M51.3,100.8c-1.1,0.1-2.2-0.4-3-1.3c-1.1-1.5-0.8-3.6,0.6-4.7L63.2,84c1.5-1.1,3.6-0.8,4.7,0.6
	c1.1,1.5,0.8,3.6-0.6,4.7l-14.2,10.8C52.5,100.5,51.9,100.7,51.3,100.8"/>
<path class="st2" d="M79.7,52.4c1.9,21.9-14.4,41.2-36.4,43.1C21.3,97.4,2,81.1,0.1,59.2C-1.7,37.3,14.6,18,36.5,16.1
	C58.5,14.3,77.8,30.5,79.7,52.4"/>
<path class="st0" d="M58.5,43.3c-0.3,4.8-0.9,12.9-2,20.1c-1.2,7.4-7.3,13.2-14.8,13.9c-0.1,0-0.1,0-0.2,0
	c-7.7,0.6-14.8-4.2-17.1-11.6c-2.1-6.8-3.8-14.6-4.8-19.3c-1.4-6.9,3.2-13.6,10.1-14.7c1.5-0.2,2.9-0.4,4.4-0.6c0.2,0,0.3,0,0.5-0.1
	c2.2-0.3,4.3-0.4,6.5-0.6c0.1,0,0.3,0,0.4,0c1.5-0.1,2.9-0.1,4.4-0.1C53.1,30,58.9,36.1,58.5,43.3"/>
<path class="st0" d="M61.4,32.9c-2.2,2.1-5.8,2-7.9-0.2c-2.1-2.2-2-5.8,0.2-7.9c2.2-2.1,5.8-2,7.9,0.2
	C63.8,27.2,63.7,30.7,61.4,32.9"/>
<path class="st1" d="M59.3,31.9C59.3,31.9,59.2,32,59.3,31.9l-5.1-4.2c0.1-0.2,0.3-0.4,0.5-0.6c1.3-1.3,3.4-1.2,4.7,0.1
	C60.7,28.6,60.6,30.7,59.3,31.9"/>
<path class="st0" d="M22.9,28c2.1,2.2,2,5.8-0.2,7.9c-2.2,2.1-5.8,2-7.9-0.2c-2.1-2.2-2-5.8,0.2-7.9C17.2,25.7,20.8,25.7,22.9,28"/>
<path class="st1" d="M21.9,30.1C22,30.1,22,30.2,21.9,30.1l-4.2,5.1c-0.2-0.1-0.4-0.3-0.6-0.5c-1.3-1.3-1.2-3.4,0.1-4.7
	C18.6,28.7,20.7,28.8,21.9,30.1"/>
<path class="st1" d="M35,49.9l-0.9-19c0.2,0,0.3,0,0.5-0.1c2.2-0.3,4.3-0.4,6.5-0.6c0.1,0,0.3,0,0.4,0l2.2,18.9L35,49.9z"/>
<path class="st3" d="M43.7,48c0.3,2.5-1.6,4.7-4,4.9c-2.5,0.2-4.6-1.7-4.8-4.1l0-0.2l8.8-0.8L43.7,48z"/>
<rect x="38.9" y="50" transform="matrix(0.9964 -8.500914e-02 8.500914e-02 0.9964 -4.354 3.5633)" class="st3" width="1.4" height="5.8"/>
<path class="st2" d="M48.4,24.9c0.4,4.4-4,8.3-9.9,8.8c-5.8,0.5-10.9-2.6-11.2-7c-0.4-4.4,4-8.3,9.9-8.8C43,17.4,48,20.5,48.4,24.9"
	/>
<path class="st3" d="M54.7,54.5c0.4,4.9-0.9,9.6-3.5,13c0,0-0.1,0.1-0.1,0.1c-2.4,3.2-6,5.4-10,5.7c-1.9,0.2-3.7-0.1-5.5-0.7
	c-1-0.3-1.9-0.8-2.8-1.3c-4.5-2.8-7.8-8-8.3-14.3L54.7,54.5z"/>
<path class="st4" d="M29.1,56.7l1.4,3.3c0.5,1.2,2.2,1,2.5-0.2l0.9-3.5L29.1,56.7z"/>
<path class="st4" d="M45.5,55.3l1.4,3.3c0.5,1.2,2.2,1,2.5-0.2l0.9-3.5L45.5,55.3z"/>
<path class="st5" d="M51.2,67.5c0,0-0.1,0.1-0.1,0.1c-2.4,3.2-6,5.4-10,5.7c-1.9,0.2-3.7-0.1-5.5-0.7c-1-0.3-1.9-0.8-2.8-1.3
	c0-0.2,0-0.3-0.1-0.5c-0.4-5.2,3.4-9.7,8.6-10.2C45.9,60.3,50,63.3,51.2,67.5"/>
<path class="st3" d="M55.5,45l-1.4,0.1c-0.2-2.3-1.9-4.6-4.8-4.4h0c-2.1,0.2-4.2,2.3-4,5.1L43.9,46c-0.3-3,1.8-6.4,5.3-6.7
	c0,0,0,0,0,0c1.7-0.1,3.3,0.4,4.4,1.5C54.7,42,55.4,43.4,55.5,45"/>
<path class="st3" d="M34,46.7l-1.4,0.1c-0.2-2.3-1.9-4.6-4.8-4.4h0c-2.1,0.2-4.2,2.3-4,5.1l-1.4,0.1c-0.3-3,1.8-6.4,5.3-6.7
	c0,0,0,0,0,0c1.7-0.1,3.3,0.4,4.4,1.5C33.2,43.7,33.9,45.1,34,46.7"/>
<rect x="47.5" y="22.2" transform="matrix(0.1522 -0.9883 0.9883 0.1522 14.6653 71.1831)" class="st1" width="2.7" height="9.7"/>
<rect x="22.5" y="26.5" transform="matrix(0.9553 -0.2955 0.2955 0.9553 -7.0028 9.3315)" class="st1" width="9.7" height="2.7"/>
<path class="st0" d="M155.5,169.7l1-0.8c2.8,3.2,5.3,5,8.2,5.9c2.7,0.8,5.8,0.7,10.1-0.2l0.3,1.3c-4.5,1-7.8,1.1-10.7,0.2
	C161.2,175,158.5,173.1,155.5,169.7"/>
<path class="st0" d="M156.4,171.8l-12-17.3l22.4-12.6c3.7-2.1,8.3-1,10.7,2.4s1.8,8.2-1.4,10.9L156.4,171.8z"/>
<path class="st1" d="M166,159.4c-0.1,0.1-0.2,0.2-0.3,0.2l-12.4,7.7l-5.9-8.5l11.4-9c3.1-2.4,7.4-2.1,9.4,0.8
	C170.1,153.4,169.1,157.3,166,159.4"/>
<path class="st0" d="M167.2,132.8c-0.2-0.3-0.4-0.7-0.4-1.2l-0.7-11.9c-0.1-1.2,0.9-2.3,2.1-2.4c1.2-0.1,2.3,0.9,2.4,2.1l0.7,11.9
	c0.1,1.2-0.9,2.3-2.1,2.4C168.4,133.8,167.7,133.4,167.2,132.8"/>
<path class="st0" d="M167.8,144.6c-0.2-0.3-0.4-0.7-0.4-1.2l-0.5-12c-0.1-1.2,0.9-2.3,2.2-2.3c1.2-0.1,2.3,0.9,2.3,2.2l0.5,12
	c0.1,1.2-0.9,2.3-2.2,2.3C168.9,145.6,168.2,145.2,167.8,144.6"/>
<path class="st0" d="M184.7,157.8c-0.4-0.6-0.5-1.4-0.2-2.2c0.5-1.1,1.8-1.7,3-1.2l11,4.8c1.1,0.5,1.7,1.8,1.2,3
	c-0.5,1.1-1.8,1.7-3,1.2l-11-4.8C185.2,158.4,184.9,158.2,184.7,157.8"/>
<path class="st0" d="M173.7,153.2c-0.4-0.6-0.5-1.4-0.2-2.2c0.5-1.1,1.8-1.7,3-1.2l11.1,4.7c1.1,0.5,1.7,1.8,1.2,3
	c-0.5,1.1-1.8,1.7-3,1.2l-11.1-4.7C174.3,153.8,174,153.5,173.7,153.2"/>
<path class="st2" d="M211.4,153.5c-12.2,8.4-28.9,5.4-37.3-6.8c-8.5-12.2-5.5-28.9,6.7-37.3c12.2-8.4,28.9-5.4,37.3,6.8
	C226.6,128.3,223.6,145.1,211.4,153.5"/>
<path class="st0" d="M209.7,138.1c-2.9,1.5-7.8,3.8-12.4,5.6c-4.7,1.8-10.1,0.2-13-4c0,0-0.1-0.1-0.1-0.1c-3-4.3-2.5-10.1,1-13.9
	c3.3-3.5,7.2-7.1,9.7-9.3c3.5-3.1,9-2.7,12,1c0.6,0.8,1.3,1.6,1.8,2.4c0.1,0.1,0.1,0.2,0.2,0.3c0.9,1.2,1.7,2.4,2.5,3.6
	c0.1,0.1,0.1,0.2,0.2,0.2c0.5,0.8,1.1,1.7,1.6,2.5C215.6,130.5,214,135.9,209.7,138.1"/>
<path class="st0" d="M216.7,136.3c-2-0.6-3.1-2.7-2.5-4.7c0.6-2,2.7-3.1,4.7-2.5s3.1,2.7,2.5,4.7
	C220.8,135.8,218.7,136.9,216.7,136.3"/>
<path class="st1" d="M216.5,134.7C216.5,134.7,216.5,134.7,216.5,134.7l0.7-4.4c0.2,0,0.4,0,0.6,0.1c1.2,0.4,1.9,1.6,1.5,2.8
	C219,134.4,217.7,135.1,216.5,134.7"/>
<path class="st0" d="M206.6,112.2c-0.6,2-2.7,3.1-4.7,2.5c-2-0.6-3.1-2.7-2.5-4.7c0.6-2,2.7-3.1,4.7-2.5
	C206.1,108.1,207.2,110.2,206.6,112.2"/>
<path class="st1" d="M205.1,112.3C205.1,112.4,205,112.4,205.1,112.3l-4.4-0.7c0-0.2,0-0.4,0.1-0.6c0.4-1.2,1.6-1.9,2.8-1.5
	C204.7,109.9,205.4,111.2,205.1,112.3"/>
<path class="st1" d="M197.9,126.6l10.8-6.9c0.1,0.1,0.1,0.2,0.2,0.3c0.9,1.2,1.7,2.4,2.5,3.6c0.1,0.1,0.1,0.2,0.2,0.2l-10.3,7.7
	L197.9,126.6z"/>
<path class="st3" d="M201.9,131c-1.4,1-3.2,0.7-4.2-0.7c-1-1.4-0.6-3.3,0.8-4.2l0.1-0.1l3.4,4.9L201.9,131z"/>
<rect x="195.8" y="129.8" transform="matrix(0.8212 -0.5706 0.5706 0.8212 -39.0153 136.1254)" class="st3" width="3.9" height="1"/>
<path class="st2" d="M217,126c-2.4,1.7-6.2,0.4-8.5-2.8c-2.2-3.2-2.1-7.2,0.3-8.9c2.4-1.7,6.2-0.4,8.5,2.8
	C219.5,120.3,219.4,124.3,217,126"/>
<path class="st3" d="M201.8,139.6c-2.7,1.9-5.9,2.7-8.8,2.3c0,0-0.1,0-0.1,0c-2.7-0.3-5.1-1.7-6.7-3.9c-0.7-1-1.2-2.2-1.4-3.4
	c-0.1-0.7-0.2-1.4-0.2-2.1c0.1-3.5,2.1-7.2,5.5-9.6L201.8,139.6z"/>
<path class="st4" d="M191.9,125.4l-1.5,1.9c-0.5,0.7,0.1,1.6,0.9,1.4l2.4-0.7L191.9,125.4z"/>
<path class="st4" d="M198.3,134.5l-1.5,1.9c-0.5,0.7,0.1,1.6,0.9,1.4l2.4-0.7L198.3,134.5z"/>
<path class="st5" d="M193.1,142c0,0-0.1,0-0.1,0c-2.7-0.3-5.1-1.7-6.7-3.9c-0.7-1-1.2-2.2-1.4-3.4c-0.1-0.7-0.2-1.4-0.2-2.1
	c0.1-0.1,0.2-0.1,0.3-0.2c2.9-2,6.8-1.3,8.8,1.6C195.5,136.5,195.1,139.8,193.1,142"/>
<path class="st3" d="M207.6,136.9l-0.6-0.8c1.3-0.9,2-2.7,0.9-4.3c0,0,0,0,0,0c-0.8-1.2-2.8-1.7-4.3-0.6l-0.5-0.8
	c1.7-1.1,4.3-1.1,5.7,0.9c0,0,0,0,0,0c0.6,0.9,0.9,2,0.6,3.1C209.2,135.4,208.5,136.3,207.6,136.9"/>
<path class="st3" d="M199.4,124.9l-0.6-0.8c1.3-0.9,2-2.7,0.9-4.3c0,0,0,0,0,0c-0.8-1.2-2.8-1.7-4.3-0.6l-0.5-0.8
	c1.7-1.1,4.3-1.1,5.7,0.9c0,0,0,0,0,0c0.6,0.9,0.9,2,0.6,3.1C200.9,123.4,200.3,124.3,199.4,124.9"/>
<rect x="215" y="123.7" transform="matrix(0.9326 -0.3608 0.3608 0.9326 -31.2772 86.4511)" class="st1" width="1.8" height="6.6"/>
<rect x="207.3" y="111.5" transform="matrix(0.6806 -0.7326 0.7326 0.6806 -17.5598 189.1896)" class="st1" width="1.8" height="6.6"/>
<path class="st1" d="M180.5,174l-2.6-2c-1.4-1.1-3.5-0.8-4.6,0.6c-1.1,1.4-0.8,3.5,0.6,4.6c1.4,1.1,3.5,0.8,4.6-0.6L180.5,174z"/>
<path class="st0" d="M121.5,158.9L84,143.3l23.3-43.8c3.8-7.2,12.5-10.3,20-7.1s11.4,11.5,9,19.3L121.5,158.9z"/>
<path class="st1" d="M124.4,128.8c-0.1,0.2-0.2,0.5-0.3,0.7l-12.2,25.4l-18.4-7.7l9.2-26.5c2.5-7.2,9.9-11.1,16.1-8.5
	C124.7,114.7,127.1,122.1,124.4,128.8"/>
<path class="st0" d="M98.7,84c-0.7-0.3-1.4-0.8-1.9-1.5L83.3,63.7c-1.4-2-1-4.7,1-6.1c2-1.4,4.7-1,6.1,1l13.5,18.8
	c1.4,2,1,4.7-1,6.1C101.6,84.4,100,84.5,98.7,84"/>
<path class="st0" d="M111.8,102.8c-0.7-0.3-1.4-0.8-1.9-1.5l-13.3-19c-1.4-2-0.9-4.7,1.1-6.1c2-1.4,4.7-0.9,6.1,1.1l13.3,19
	c1.4,2,0.9,4.7-1.1,6.1C114.7,103.2,113.2,103.3,111.8,102.8"/>
<path class="st0" d="M153.1,106.7c-1.3-0.6-2.4-1.8-2.6-3.3c-0.4-2.4,1.3-4.6,3.6-5l22.8-3.6c2.4-0.4,4.6,1.3,5,3.6
	c0.4,2.4-1.3,4.6-3.6,5l-22.8,3.6C154.6,107.1,153.8,107,153.1,106.7"/>
<path class="st0" d="M130.4,110.5c-1.3-0.6-2.4-1.8-2.6-3.3c-0.4-2.4,1.2-4.6,3.6-5l22.9-3.9c2.4-0.4,4.6,1.2,5,3.6
	c0.4,2.4-1.2,4.6-3.6,5l-22.9,3.9C132,111,131.2,110.9,130.4,110.5"/>
<path class="st2" d="M192.3,71.9c-11,26.4-41.4,38.8-67.9,27.7C97.9,88.5,85.4,58.2,96.5,31.8C107.5,5.4,137.9-7,164.3,4
	C190.8,15.1,203.3,45.5,192.3,71.9"/>
<path class="st0" d="M173.3,48.5c-3.2,5.4-8.8,14.4-14.4,21.9c-5.8,7.9-16.3,10.8-25.4,7.1c-0.1,0-0.2-0.1-0.2-0.1
	c-9.3-3.9-14.6-13.8-12.8-23.7c1.7-9.1,4.4-19.1,6.1-25.2c2.5-8.8,11.8-13.8,20.5-10.9c1.8,0.6,3.7,1.3,5.5,1.9
	c0.2,0.1,0.4,0.1,0.6,0.2c2.7,1,5.3,2.1,7.8,3.3c0.2,0.1,0.3,0.2,0.5,0.2c1.7,0.8,3.5,1.6,5.2,2.5C175.1,30.1,178.1,40.5,173.3,48.5
	"/>
<path class="st0" d="M183,38.3c-3.9,1.1-7.9-1.1-9-5c-1.1-3.9,1.1-7.9,5-9c3.9-1.1,7.9,1.1,9,5C189.1,33.2,186.8,37.2,183,38.3"/>
<path class="st1" d="M181.1,35.9c0,0-0.1,0-0.1,0l-3.2-7.9c0.3-0.2,0.6-0.3,1-0.4c2.3-0.7,4.7,0.7,5.3,3
	C184.7,32.9,183.4,35.3,181.1,35.9"/>
<path class="st0" d="M141.5,9.5c1.1,3.9-1.1,7.9-5,9c-3.9,1.1-7.9-1.1-9-5c-1.1-3.9,1.1-7.9,5-9C136.4,3.4,140.4,5.6,141.5,9.5"/>
<path class="st1" d="M139.1,11.4c0,0,0,0.1,0,0.1l-7.9,3.2c-0.2-0.3-0.3-0.6-0.4-1c-0.7-2.3,0.7-4.7,3-5.3
	C136.1,7.8,138.4,9.1,139.1,11.4"/>
<path class="st1" d="M142.2,42.1l10.5-22.5c0.2,0.1,0.4,0.1,0.6,0.2c2.7,1,5.3,2.1,7.8,3.3c0.2,0.1,0.3,0.2,0.5,0.2l-8.8,23.2
	L142.2,42.1z"/>
<path class="st3" d="M153.4,45.1c-1.2,3-4.6,4.4-7.6,3.2c-3-1.2-4.3-4.7-3-7.6l0.1-0.2l10.6,4.4L153.4,45.1z"/>
<rect x="142" y="47.4" transform="matrix(0.3857 -0.9226 0.9226 0.3857 44.9858 164.2182)" class="st3" width="7.6" height="1.9"/>
<path class="st2" d="M172.7,21.3c-2.2,5.3-9.7,7.2-16.7,4.2c-7-2.9-10.9-9.6-8.7-14.9c2.2-5.3,9.7-7.2,16.7-4.2
	C171,9.4,174.9,16,172.7,21.3"/>
<path class="st3" d="M162.2,59.2c-2.5,6-6.9,10.5-11.9,12.9c-0.1,0-0.1,0.1-0.2,0.1c-4.8,2.3-10.1,2.6-15,0.6
	c-2.3-1-4.3-2.4-5.9-4.1c-0.9-1-1.7-2.1-2.4-3.2c-3.5-5.9-4.1-13.9-1-21.5L162.2,59.2z"/>
<path class="st4" d="M131.3,46.4l-0.4,4.7c-0.1,1.6,1.9,2.5,3,1.3l3.2-3.5L131.3,46.4z"/>
<path class="st4" d="M151.1,54.6l-0.4,4.7c-0.1,1.6,1.9,2.5,3,1.3l3.2-3.5L151.1,54.6z"/>
<path class="st5" d="M150.3,72.1c-0.1,0-0.1,0.1-0.2,0.1c-4.8,2.3-10.1,2.6-15,0.6c-2.3-1-4.3-2.4-5.9-4.1c-0.9-1-1.7-2.1-2.4-3.2
	c0.1-0.2,0.1-0.4,0.2-0.6c2.6-6.2,9.8-9.2,16-6.6C148.6,60.7,151.5,66.5,150.3,72.1"/>
<rect x="170.2" y="17.7" transform="matrix(0.5926 -0.8055 0.8055 0.5926 50.7101 148.3024)" class="st1" width="3.5" height="12.7"/>
<rect x="145" y="5.7" transform="matrix(0.1803 -0.9836 0.9836 0.1803 108.4793 154.1833)" class="st1" width="3.5" height="12.7"/>
<path class="st4" d="M170.6,46.4c-2.4,5.5-7.7,8.4-11.9,6.6c-4.2-1.8-5.7-7.7-3.3-13.2c2.4-5.5,7.7-8.4,11.9-6.6
	C171.5,35.1,173,41,170.6,46.4"/>
<path class="st4" d="M129.6,29.3c-2.2,5.5-0.6,11.4,3.7,13.1c4.3,1.7,9.5-1.4,11.7-6.9c2.2-5.5,0.6-11.4-3.7-13.1
	C137.1,20.7,131.8,23.8,129.6,29.3"/>
<path class="st3" d="M158.3,47.3l-0.1-0.1c-1.1-0.5-1.6-1.7-1.1-2.8l1.8-4.1c0.5-1.1,1.7-1.6,2.8-1.1l0.1,0.1
	c1.1,0.5,1.6,1.7,1.1,2.8l-1.8,4.1C160.6,47.3,159.4,47.8,158.3,47.3"/>
<path class="st3" d="M137.6,38.7l0.1,0.1c1.1,0.4,2.3-0.1,2.8-1.2l1.7-4.2c0.4-1.1-0.1-2.3-1.2-2.8l-0.1-0.1
	c-1.1-0.4-2.3,0.1-2.8,1.2l-1.7,4.2C136,37,136.5,38.2,137.6,38.7"/>
</svg>
