<?xml version="1.0" encoding="utf-8"?>
<!-- Generator: Adobe Illustrator 23.0.3, SVG Export Plug-In . SVG Version: 6.00 Build 0)  -->
<svg version="1.1" id="Layer_1" xmlns="http://www.w3.org/2000/svg" xmlns:xlink="http://www.w3.org/1999/xlink" x="0px" y="0px"
	 viewBox="0 0 411.4 225.3" style="enable-background:new 0 0 411.4 225.3;" xml:space="preserve">
<style type="text/css">
	.st0{fill:#999A95;}
	.st1{fill:#332E2B;}
	.st2{fill:#A5A4A2;}
	.st3{fill:#EFE9D3;}
</style>
<path class="st0" d="M76.3,16.8c-2.7,2.3-6.3,4-10.6,2.6c-7.8-2.5-19.9-0.7-25.7,12.1c-6.8-12.3-19.1-13-26.6-9.8
	C9.2,23.4,5.5,22,2.6,20c-1.8-1.2-3.3,1.9-2.3,4.5c4.2,11,11.8,22.1,22.4,22.3c13.5,0.3,14.9,6,18.9,14.6c3.2-9,3.6-14.7,17-16.2
	C69.1,44.1,75.7,32.4,79,21.1C79.7,18.4,77.9,15.4,76.3,16.8"/>
<path class="st0" d="M32.5,39c0,119.1,64.2,139.4,187,139.4c38.7,0,134.8-1.9,180.5-2.4c6.3-0.1,11.3-5.2,11.3-11.4V73.6
	c-0.6-40.4-19.9-68.2-75.2-71.9C280.9-2,229.7-1.7,186,22.3c-56.1,30.9-49.4,66.9-89.8,80.3C49.9,118.1,46.6,39,46.6,39
	S39.6,34.7,32.5,39"/>
<path class="st1" d="M282,162.8c0,0.6,0.5,1,1,1h0l128.3-1.9v-2.1L283,161.7C282.4,161.7,282,162.2,282,162.8"/>
<path class="st2" d="M203.3,213.5c8.8-12.8,9.5-26.5,8.3-36.6c-0.6-4.7-4.3-8.4-9-8.9c-2.9-0.3-5.8,0.6-8,2.5
	c-6.1,5.5-12.6,13.8-15.5,25.5C172.9,221,186.6,237.7,203.3,213.5"/>
<path class="st3" d="M259.4,151.7c0,3.3,1.9,6,5.7,6c3.6,0,5.7-2.7,5.7-6c0-3.3-1.9-6-5.7-6C261.5,145.7,259.4,148.4,259.4,151.7"/>
<path class="st1" d="M263,153.5L263,153.5c1,0,1.9-0.8,1.9-1.9v-1.9c0-1-0.8-1.9-1.9-1.9c-1,0-1.9,0.8-1.9,1.9v1.9
	C261.2,152.7,262,153.5,263,153.5"/>
<rect x="255.8" y="135.3" transform="matrix(0.9986 -5.299063e-02 5.299063e-02 0.9986 -6.9283 14.3097)" class="st1" width="21.2" height="5"/>
</svg>
